Coordinates
version=1
nRows=14
nColumns=40
inDegrees=yes

Units are S.I. units (second, meters, Newtons, ...)
Angles are in degrees.

endheader
time	pelvis_tilt	pelvis_list	pelvis_rotation	pelvis_tx	pelvis_ty	pelvis_tz	hip_flexion_r	hip_adduction_r	hip_rotation_r	knee_angle_r	knee_angle_r_beta	ankle_angle_r	subtalar_angle_r	mtp_angle_r	hip_flexion_l	hip_adduction_l	hip_rotation_l	knee_angle_l	knee_angle_l_beta	ankle_angle_l	subtalar_angle_l	mtp_angle_l	lumbar_extension	lumbar_bending	lumbar_rotation	arm_flex_r	arm_add_r	arm_rot_r	elbow_flex_r	pro_sup_r	wrist_flex_r	wrist_dev_r	arm_flex_l	arm_add_l	arm_rot_l	elbow_flex_l	pro_sup_l	wrist_flex_l	wrist_dev_l
      0.00000000	      2.04171785	      6.17568119	     -4.07632903	     -1.41166201	      0.89412812	     -1.42481497	     10.93061652	     -8.53135109	     -4.85193442	    -65.71906387	     -1.14701405	     -9.62871435	    -16.71489631	     16.93385401	     10.02504211	     -4.48253340	      8.67612306	    -22.56183058	     -0.39377823	      8.51483140	      0.93505177	     -2.16602314	     -6.39328664	     -3.55796794	      0.06000560	      9.13172832	     -8.10980644	     18.33746183	     25.96616578	     89.95437384	      0.00000000	      0.00000000	     -5.71783780	      9.57710517	    -21.95862255	      9.11684091	     89.95437384	      0.00000000	      0.00000000
      0.01000000	      2.21877901	      5.85028692	     -4.16594440	     -1.40031560	      0.89522937	     -1.42668641	     12.36805806	     -8.45555429	     -5.55833600	    -66.41275407	     -1.15912122	     -8.84753989	    -16.98889989	     16.70031618	      8.81200823	     -4.36099832	      8.73470640	    -22.27081682	     -0.38869908	      8.87742696	      0.85348958	     -2.19703725	     -6.65066571	     -3.09446578	     -0.26707450	      8.83723753	     -8.31977708	     18.34273137	     25.29126360	     89.95437384	      0.00000000	      0.00000000	     -4.65867752	      9.91379885	    -21.98178103	      9.28453335	     89.95437384	      0.00000000	      0.00000000
      0.02000000	      2.67974855	      5.52543381	     -4.17191444	     -1.38869080	      0.89689615	     -1.42840812	     13.15708480	     -8.12299363	     -6.03674549	    -66.45223210	     -1.15981025	     -6.45727697	    -17.01807568	     16.67614353	      6.90735815	     -4.42431939	      8.13335727	    -21.28667312	     -0.37152253	      9.64387252	      0.91779216	     -2.23541782	     -7.16794747	     -2.66899673	     -0.66232850	      8.66448646	     -8.35326057	     18.05325172	     24.19709723	     89.95437384	      0.00000000	      0.00000000	     -3.57665875	     10.36577970	    -22.66279703	      9.60337134	     89.95437384	      0.00000000	      0.00000000
      0.03000000	      2.66003746	      5.09481299	     -4.22021666	     -1.37725540	      0.89769951	     -1.42983787	     14.57408782	     -7.65941083	     -6.60329550	    -66.29493133	     -1.15706483	     -5.32833559	    -17.11126895	     16.49686804	      5.69082321	     -4.18631968	      8.14093618	    -20.61713750	     -0.35983693	     10.16627505	      0.82999590	     -2.27292489	     -7.12638308	     -2.11445199	     -1.01374808	      8.36659163	     -8.46584439	     18.05555793	     23.25151352	     89.95437384	      0.00000000	      0.00000000	     -2.51444490	     10.72134588	    -22.80160792	      9.79093700	     89.95437384	      0.00000000	      0.00000000
      0.04000000	      2.59173713	      4.73901498	     -4.24565394	     -1.36613721	      0.89824766	     -1.43145007	     16.09109745	     -7.38965055	     -7.35045983	    -65.95009354	     -1.15104627	     -4.63815492	    -16.98839318	     16.27260580	      4.66393908	     -4.00202599	      8.40402071	    -20.12491081	     -0.35124596	     10.57952268	      0.83541514	     -2.28669715	     -7.10343562	     -1.60489495	     -1.28129657	      7.99698948	     -8.69009900	     18.02197094	     22.52712365	     89.95437384	      0.00000000	      0.00000000	     -1.37831789	     11.10947707	    -22.80015153	     10.18394562	     89.95437384	      0.00000000	      0.00000000
      0.05000000	      3.34146735	      3.91109611	     -4.23086880	     -1.35403382	      0.90028859	     -1.43247840	     16.07126143	     -6.28983440	     -7.88048708	    -64.55006694	     -1.12661120	     -2.66413709	    -16.41183483	     15.98532528	      2.27025868	     -3.39973135	      8.06901926	    -18.97573002	     -0.33118897	     11.17355263	      0.59905681	     -2.35490277	     -7.92272115	     -0.67536754	     -1.62880850	      7.76166506	     -8.73710483	     17.26038466	     21.43063665	     89.95437384	      0.00000000	      0.00000000	     -0.28413297	     11.56813549	    -23.19441548	     10.77358457	     89.95437384	      0.00000000	      0.00000000
      0.06000000	      3.59794779	      3.39952183	     -4.24277432	     -1.34215589	      0.90124276	     -1.43359220	     16.78236320	     -5.57044910	     -8.37305126	    -63.18983480	     -1.10287067	     -1.69620599	    -16.02845491	     15.60540496	      0.62011350	     -3.04613386	      8.12112877	    -18.11936821	     -0.31624263	     11.41483804	      0.28153325	     -2.44409070	     -8.15461416	     -0.07248358	     -1.89505665	      7.32839282	     -8.86077080	     16.85987222	     20.57419154	     89.95437384	      0.00000000	      0.00000000	      0.80718551	     11.96569174	    -23.12060648	     11.33557814	     89.95437384	      0.00000000	      0.00000000
      0.07000000	      3.48501282	      2.91792756	     -4.30886479	     -1.33097335	      0.90145091	     -1.43464473	     17.99596958	     -4.88016583	     -8.87425574	    -61.69072447	     -1.07670626	     -0.94291331	    -15.57007525	     15.24697991	     -0.48435852	     -2.69217488	      8.13197548	    -17.43523348	     -0.30430223	     11.76692757	      0.02089701	     -2.51433953	     -8.05420678	      0.52630332	     -2.04924026	      6.97612216	     -9.03633121	     16.58992877	     19.62838117	     89.95437384	      0.00000000	      0.00000000	      1.90289887	     12.37673695	    -22.80457194	     12.02582135	     89.95437384	      0.00000000	      0.00000000
      0.08000000	      3.21195679	      2.77788707	     -4.30488449	     -1.31952714	      0.90106648	     -1.43603937	     19.37118338	     -4.66890083	     -9.47371000	    -60.08299636	     -1.04864611	     -0.45940621	    -15.31576512	     15.01555231	     -1.28912216	     -2.69791368	      8.45225257	    -16.93495302	     -0.29557069	     12.12875696	     -0.03748170	     -2.54376396	     -7.68605375	      0.76832815	     -2.22117387	      6.38493040	     -9.30290997	     16.49867417	     18.94518903	     89.95437384	      0.00000000	      0.00000000	      3.00214998	     12.78936907	    -22.53259838	     12.69753778	     89.95437384	      0.00000000	      0.00000000
      0.09000000	      4.05791728	      1.92222818	     -4.39213418	     -1.30752235	      0.90248729	     -1.43652997	     18.96239224	     -3.49966773	     -9.98682194	    -57.56850434	     -1.00475995	      0.29486156	    -14.79226184	     14.16914683	     -3.84155853	     -1.95138588	      8.84958456	    -15.60136571	     -0.27229520	     12.18477474	     -0.97339585	     -2.86169692	     -8.69358734	      1.68296632	     -2.42781882	      6.17476142	     -9.31250904	     15.32395000	     17.91483781	     89.95437384	      0.00000000	      0.00000000	      4.04714167	     13.04043821	    -20.40419340	     13.62043815	     89.95437384	      0.00000000	      0.00000000
      0.10000000	      4.04904375	      1.49218314	     -4.42967328	     -1.29608575	      0.90214645	     -1.43745331	     19.73122379	     -2.81245673	    -10.44517108	    -55.23432297	     -0.96402080	      0.86801753	    -14.39682839	     13.75858790	     -5.03292975	     -1.64866886	      9.04167441	    -14.99029346	     -0.26162998	     12.69188261	     -1.12349333	     -2.98285469	     -8.72063075	      2.19942259	     -2.55407003	      5.73131753	     -9.53586603	     15.16515630	     17.11690942	     89.95437384	      0.00000000	      0.00000000	      5.07074072	     13.43792339	    -19.45853722	     14.65939611	     89.95437384	      0.00000000	      0.00000000
      0.11000000	      3.63742833	      1.61372158	     -4.48352426	     -1.28497442	      0.90075915	     -1.43859512	     21.16973289	     -2.85131702	    -10.90790254	    -53.13906870	     -0.92745171	      1.25557342	    -14.10107171	     13.56908997	     -5.55679142	     -1.92361256	      9.27014743	    -14.66011321	     -0.25586724	     12.93946055	     -1.24513384	     -3.00827558	     -8.25358538	      2.12366536	     -2.58532342	      5.11517280	     -9.78414093	     15.13739479	     16.47723445	     89.95437384	      0.00000000	      0.00000000	      6.21396267	     13.86634705	    -19.11283960	     15.44205272	     89.95437384	      0.00000000	      0.00000000
      0.12000000	      4.21540232	      0.84324240	     -4.45647104	     -1.27289989	      0.90103492	     -1.43904846	     20.81330365	     -1.77166664	    -11.43489043	    -50.01261230	     -0.87288475	      1.89991692	    -13.61052968	     13.04936389	     -7.71429265	     -1.25008282	      9.55007002	    -13.53807042	     -0.23628390	     13.13895532	     -2.01537845	     -3.28109618	     -8.94573896	      2.95487073	     -2.82708775	      4.88250828	     -9.84041765	     14.27816845	     15.42417896	     89.95437384	      0.00000000	      0.00000000	      7.14760230	     14.06001868	    -16.63773361	     16.51836551	     89.95437384	      0.00000000	      0.00000000
      0.13000000	      3.99569690	      0.53768565	     -4.31864191	     -1.26181353	      0.89959737	     -1.43988058	     21.67898587	     -1.26536632	    -11.94050526	    -47.36961276	     -0.82675571	      3.14165783	    -13.18712195	     12.66602903	     -8.46595798	     -0.99512203	      9.60205618	    -13.24876295	     -0.23123454	     13.58167422	     -2.29588152	     -3.44708417	     -8.79159768	      3.33884401	     -3.04405519	      4.48967679	    -10.00315875	     14.31325683	     14.54883371	     89.95437384	      0.00000000	      0.00000000	      8.19686321	     14.45895620	    -15.86542625	     17.59418070	     89.95437384	      0.00000000	      0.00000000
